<?xml version="1.0" encoding="utf-8"?>
<!-- Generator: Adobe Illustrator 16.0.3, SVG Export Plug-In . SVG Version: 6.00 Build 0)  -->
<!DOCTYPE svg PUBLIC "-//W3C//DTD SVG 1.1//EN" "http://www.w3.org/Graphics/SVG/1.1/DTD/svg11.dtd">
<svg version="1.1" id="Ebene_1" xmlns="http://www.w3.org/2000/svg" xmlns:xlink="http://www.w3.org/1999/xlink" x="0px" y="0px"
	 width="131.25px" height="39.75px" viewBox="0 0 131.25 39.75" enable-background="new 0 0 131.25 39.75" xml:space="preserve">
<g>
	<path fill="#36A9E1" d="M30.605,33.055H5.609c-1.346,0-2.438-1.092-2.438-2.438V5.307c0-1.346,1.093-2.438,2.438-2.438h24.996
		c1.347,0,2.438,1.092,2.438,2.438v25.311C33.044,31.963,31.952,33.055,30.605,33.055"/>
	<path fill="#FFFFFF" d="M29.625,26.348c-0.02,0-0.039,0.006-0.059,0.006c-6.014-0.264-10.773-3.511-10.773-8.324
		c0-4.814,4.763-8.167,10.778-8.43l0.013,0.002c0.564-0.018,1.004-0.495,1.004-1.076s-0.453-1.051-1.017-1.069V7.454
		c-0.005,0-0.009,0.001-0.015,0.001c-0.007,0-0.013-0.002-0.02-0.002c-0.085,0-0.168,0.014-0.248,0.034
		c-4.55,0.524-8.373,2.724-10.359,5.744c0.313-4.376,0.979-7.344,0.979-7.344h-0.007c-0.009-0.45-0.8-0.813-1.776-0.813
		c-0.981,0-1.778,0.367-1.778,0.821c0,0.044,0.014,0.087,0.028,0.13c0.104,0.662,0.564,3.709,0.86,7.088
		c-2.021-2.979-5.838-5.139-10.368-5.639c-0.055-0.012-0.112-0.017-0.17-0.02C6.691,7.452,6.683,7.451,6.676,7.45v0.001
		C6.665,7.45,6.656,7.447,6.645,7.447c-0.579,0-1.05,0.481-1.05,1.073c0,0.592,0.471,1.073,1.05,1.073
		c0.012,0,0.011,0.002,0.021,0.001l0.011,0.003c6.016,0.262,10.778,3.616,10.778,8.43c0,4.791-4.719,8.029-10.694,8.318
		c-0.056-0.01-0.111-0.018-0.17-0.018c-0.58,0-1.051,0.48-1.051,1.074s0.471,1.074,1.051,1.074c0.082,0,0.16-0.012,0.237-0.031
		c4.592-0.494,8.458-2.693,10.47-5.727c-0.286,3.858-0.792,7.28-0.792,7.28h0.004c-0.001,0.012-0.007,0.021-0.007,0.031
		c0,0.455,0.801,0.822,1.79,0.822s1.79-0.367,1.79-0.822c0-0.037-0.013-0.074-0.023-0.111h0.002c0,0-0.701-2.756-1.069-7.141
		c2.02,3,5.859,5.176,10.416,5.67c0.029,0.006,0.059,0.008,0.089,0.01c0.025,0.004,0.05,0.008,0.075,0.01v-0.002
		c0.018,0.002,0.036,0.006,0.054,0.006c0.58,0,1.05-0.475,1.05-1.061S30.205,26.348,29.625,26.348z"/>
	<path fill="#1D1D1B" d="M38.261,28.283c0-0.037,0.025-0.063,0.063-0.063h0.748c0.503,0,0.778,0.223,0.907,0.619
		c0.073,0.229,0.099,0.498,0.099,1.467c0,0.963-0.025,1.238-0.099,1.467c-0.129,0.398-0.404,0.619-0.907,0.619h-0.748
		c-0.037,0-0.063-0.025-0.063-0.063V28.283z M38.617,32.092h0.417c0.35,0,0.54-0.135,0.638-0.424
		c0.061-0.189,0.086-0.441,0.086-1.361s-0.025-1.172-0.086-1.361c-0.098-0.289-0.288-0.424-0.638-0.424h-0.417
		c-0.025,0-0.037,0.012-0.037,0.037v3.496C38.58,32.08,38.592,32.092,38.617,32.092"/>
	<path fill="#1D1D1B" d="M41.305,28.283c0-0.037,0.025-0.063,0.062-0.063h1.417c0.037,0,0.062,0.025,0.062,0.063v0.178
		c0,0.037-0.024,0.061-0.062,0.061h-1.122c-0.025,0-0.037,0.012-0.037,0.037v1.533c0,0.025,0.012,0.037,0.037,0.037h0.981
		c0.036,0,0.062,0.025,0.062,0.063v0.176c0,0.037-0.025,0.063-0.062,0.063h-0.981c-0.025,0-0.037,0.012-0.037,0.035v1.59
		c0,0.025,0.012,0.037,0.037,0.037h1.122c0.037,0,0.062,0.023,0.062,0.063v0.176c0,0.037-0.024,0.063-0.062,0.063h-1.417
		c-0.036,0-0.062-0.025-0.062-0.063V28.283z"/>
	<path fill="#1D1D1B" d="M45.422,32.393c-0.037,0-0.055-0.012-0.066-0.043l-0.54-1.84c-0.08,0.012-0.166,0.018-0.259,0.018H44.27
		c-0.025,0-0.037,0.014-0.037,0.037v1.768c0,0.035-0.024,0.061-0.062,0.061h-0.195c-0.037,0-0.063-0.025-0.063-0.061v-4.049
		c0-0.039,0.025-0.063,0.063-0.063h0.595c0.729,0,1.061,0.307,1.061,1.154c0,0.582-0.184,0.906-0.515,1.055l0.563,1.902
		c0.013,0.035,0,0.061-0.03,0.061H45.422z M45.313,29.375c0-0.645-0.209-0.854-0.719-0.854H44.27c-0.025,0-0.037,0.012-0.037,0.037
		v1.637c0,0.025,0.012,0.037,0.037,0.037h0.324C45.091,30.232,45.313,30.043,45.313,29.375"/>
	<path fill="#1D1D1B" d="M50.308,32.393c-0.037,0-0.056-0.025-0.062-0.063l-0.558-3.313h-0.013l-0.564,3.313
		c-0.006,0.037-0.025,0.063-0.061,0.063h-0.185c-0.037,0-0.055-0.025-0.062-0.063l-0.688-4.047
		c-0.006-0.037,0.006-0.063,0.049-0.063h0.203c0.036,0,0.062,0.025,0.067,0.063l0.521,3.324h0.013l0.563-3.324
		c0.006-0.037,0.025-0.063,0.062-0.063h0.16c0.036,0,0.055,0.025,0.061,0.063l0.571,3.324h0.018l0.522-3.324
		c0.006-0.037,0.023-0.063,0.061-0.063h0.203c0.036,0,0.049,0.025,0.042,0.063l-0.687,4.047c-0.007,0.037-0.024,0.063-0.062,0.063
		H50.308z"/>
	<path fill="#1D1D1B" d="M52.304,28.283c0-0.037,0.024-0.063,0.061-0.063h1.417c0.037,0,0.063,0.025,0.063,0.063v0.178
		c0,0.037-0.025,0.061-0.063,0.061h-1.122c-0.024,0-0.037,0.012-0.037,0.037v1.533c0,0.025,0.013,0.037,0.037,0.037h0.981
		c0.037,0,0.062,0.025,0.062,0.063v0.176c0,0.037-0.024,0.063-0.062,0.063h-0.981c-0.024,0-0.037,0.012-0.037,0.035v1.59
		c0,0.025,0.013,0.037,0.037,0.037h1.122c0.037,0,0.063,0.023,0.063,0.063v0.176c0,0.037-0.025,0.063-0.063,0.063h-1.417
		c-0.036,0-0.061-0.025-0.061-0.063V28.283z"/>
	<path fill="#1D1D1B" d="M54.844,30.307c0-1.221,0.019-1.381,0.08-1.564c0.122-0.373,0.411-0.57,0.841-0.57
		c0.54,0,0.827,0.32,0.895,0.822c0.007,0.043-0.006,0.068-0.042,0.08l-0.178,0.037c-0.043,0.012-0.068-0.006-0.074-0.043
		c-0.055-0.369-0.233-0.596-0.601-0.596c-0.265,0-0.448,0.115-0.534,0.367c-0.043,0.143-0.062,0.271-0.062,1.467
		s0.019,1.324,0.062,1.467c0.086,0.244,0.275,0.367,0.54,0.367c0.264,0,0.454-0.123,0.54-0.367c0.043-0.143,0.061-0.271,0.061-1.223
		c0-0.023-0.012-0.035-0.037-0.035h-0.496c-0.037,0-0.062-0.025-0.062-0.063v-0.172c0-0.035,0.024-0.061,0.062-0.061h0.785
		c0.036,0,0.062,0.025,0.062,0.061v0.166c0,1.08-0.019,1.24-0.08,1.424c-0.122,0.373-0.411,0.57-0.84,0.57
		c-0.43,0-0.719-0.197-0.841-0.57C54.862,31.688,54.844,31.527,54.844,30.307"/>
	<path fill="#1D1D1B" d="M59.324,32.393c-0.037,0-0.061-0.025-0.061-0.063v-0.164c0-0.037,0.005-0.055,0.018-0.086l1.374-3.553
		v-0.006h-1.282c-0.037,0-0.061-0.023-0.061-0.061v-0.178c0-0.037,0.023-0.063,0.061-0.063h1.553c0.037,0,0.061,0.025,0.061,0.063
		v0.172c0,0.029,0,0.049-0.012,0.078l-1.368,3.553v0.006h1.325c0.037,0,0.061,0.025,0.061,0.063v0.176
		c0,0.037-0.023,0.063-0.061,0.063H59.324z"/>
	<path fill="#1D1D1B" d="M62.067,31.41v-3.127c0-0.037,0.025-0.063,0.061-0.063h0.197c0.037,0,0.062,0.025,0.062,0.063v3.152
		c0,0.484,0.232,0.705,0.583,0.705c0.349,0,0.588-0.221,0.588-0.705v-3.152c0-0.037,0.024-0.063,0.062-0.063h0.19
		c0.037,0,0.061,0.025,0.061,0.063v3.127c0,0.695-0.36,1.031-0.9,1.031S62.067,32.105,62.067,31.41"/>
	<path fill="#1D1D1B" d="M66.663,32.393c-0.036,0-0.055-0.012-0.067-0.043l-0.54-1.84c-0.079,0.012-0.164,0.018-0.258,0.018H65.51
		c-0.023,0-0.036,0.014-0.036,0.037v1.768c0,0.035-0.024,0.061-0.061,0.061h-0.197c-0.037,0-0.061-0.025-0.061-0.061v-4.049
		c0-0.039,0.023-0.063,0.061-0.063h0.596c0.729,0,1.061,0.307,1.061,1.154c0,0.582-0.184,0.906-0.515,1.055l0.563,1.902
		c0.014,0.035,0,0.061-0.03,0.061H66.663z M66.553,29.375c0-0.645-0.209-0.854-0.717-0.854H65.51c-0.023,0-0.036,0.012-0.036,0.037
		v1.637c0,0.025,0.013,0.037,0.036,0.037h0.326C66.332,30.232,66.553,30.043,66.553,29.375"/>
	<path fill="#1D1D1B" d="M74.568,28.283c0-0.037,0.025-0.063,0.063-0.063h0.65c0.705,0,0.98,0.277,0.98,1.063
		c0,0.539-0.165,0.803-0.485,0.926v0.012c0.313,0.111,0.528,0.361,0.528,1.02c0,0.852-0.312,1.152-1.049,1.152h-0.625
		c-0.037,0-0.063-0.025-0.063-0.063V28.283z M75.293,30.092c0.435,0,0.649-0.189,0.649-0.779c0-0.619-0.178-0.791-0.668-0.791h-0.35
		c-0.025,0-0.037,0.012-0.037,0.037v1.496c0,0.025,0.012,0.037,0.037,0.037H75.293z M74.925,32.092h0.337
		c0.515,0,0.725-0.184,0.725-0.859c0-0.65-0.228-0.852-0.688-0.852h-0.374c-0.025,0-0.037,0.012-0.037,0.035v1.639
		C74.888,32.08,74.899,32.092,74.925,32.092"/>
	<path fill="#1D1D1B" d="M77.466,28.283c0-0.037,0.025-0.063,0.062-0.063h1.417c0.037,0,0.062,0.025,0.062,0.063v0.178
		c0,0.037-0.024,0.061-0.062,0.061h-1.122c-0.025,0-0.037,0.012-0.037,0.037v1.533c0,0.025,0.012,0.037,0.037,0.037h0.98
		c0.037,0,0.062,0.025,0.062,0.063v0.176c0,0.037-0.024,0.063-0.062,0.063h-0.98c-0.025,0-0.037,0.012-0.037,0.035v1.59
		c0,0.025,0.012,0.037,0.037,0.037h1.122c0.037,0,0.062,0.023,0.062,0.063v0.176c0,0.037-0.024,0.063-0.062,0.063h-1.417
		c-0.036,0-0.062-0.025-0.062-0.063V28.283z"/>
	<path fill="#1D1D1B" d="M82.559,32.393c-0.037,0-0.055-0.025-0.061-0.063l-0.56-3.313h-0.012l-0.563,3.313
		c-0.007,0.037-0.025,0.063-0.062,0.063h-0.184c-0.038,0-0.056-0.025-0.063-0.063l-0.687-4.047
		c-0.006-0.037,0.006-0.063,0.049-0.063h0.203c0.036,0,0.061,0.025,0.066,0.063l0.521,3.324h0.013l0.564-3.324
		c0.006-0.037,0.023-0.063,0.061-0.063h0.16c0.037,0,0.055,0.025,0.061,0.063l0.571,3.324h0.019l0.521-3.324
		c0.006-0.037,0.024-0.063,0.062-0.063h0.202c0.036,0,0.05,0.025,0.042,0.063l-0.687,4.047c-0.006,0.037-0.024,0.063-0.061,0.063
		H82.559z"/>
	<path fill="#1D1D1B" d="M85.07,28.283c0-0.037,0.024-0.063,0.061-0.063h1.417c0.037,0,0.063,0.025,0.063,0.063v0.178
		c0,0.037-0.025,0.061-0.063,0.061h-1.123c-0.023,0-0.036,0.012-0.036,0.037v1.533c0,0.025,0.013,0.037,0.036,0.037h0.982
		c0.037,0,0.061,0.025,0.061,0.063v0.176c0,0.037-0.023,0.063-0.061,0.063h-0.982c-0.023,0-0.036,0.012-0.036,0.035v1.59
		c0,0.025,0.013,0.037,0.036,0.037h1.123c0.037,0,0.063,0.023,0.063,0.063v0.176c0,0.037-0.025,0.063-0.063,0.063h-1.417
		c-0.036,0-0.061-0.025-0.061-0.063V28.283z"/>
	<path fill="#1D1D1B" d="M88.127,30.307c0-1.221,0.018-1.381,0.08-1.564c0.122-0.373,0.41-0.57,0.84-0.57
		c0.539,0,0.828,0.32,0.895,0.822c0.007,0.043-0.006,0.068-0.043,0.08l-0.177,0.037c-0.043,0.012-0.067-0.006-0.074-0.043
		c-0.055-0.369-0.232-0.596-0.601-0.596c-0.264,0-0.448,0.115-0.534,0.367c-0.043,0.143-0.061,0.271-0.061,1.467
		s0.018,1.324,0.061,1.467c0.086,0.244,0.276,0.367,0.54,0.367s0.454-0.123,0.54-0.367c0.043-0.143,0.062-0.271,0.062-1.223
		c0-0.023-0.013-0.035-0.037-0.035h-0.496c-0.038,0-0.063-0.025-0.063-0.063v-0.172c0-0.035,0.024-0.061,0.063-0.061h0.785
		c0.035,0,0.061,0.025,0.061,0.061v0.166c0,1.08-0.019,1.24-0.08,1.424c-0.123,0.373-0.411,0.57-0.84,0.57
		c-0.43,0-0.718-0.197-0.84-0.57C88.145,31.688,88.127,31.527,88.127,30.307"/>
	<path fill="#1D1D1B" d="M91.68,31.41v-3.127c0-0.037,0.025-0.063,0.063-0.063h0.195c0.037,0,0.062,0.025,0.062,0.063v3.152
		c0,0.484,0.233,0.705,0.583,0.705c0.349,0,0.588-0.221,0.588-0.705v-3.152c0-0.037,0.025-0.063,0.062-0.063h0.19
		c0.037,0,0.061,0.025,0.061,0.063v3.127c0,0.695-0.36,1.031-0.9,1.031S91.68,32.105,91.68,31.41"/>
	<path fill="#1D1D1B" d="M95.282,28.283c0-0.037,0.025-0.063,0.063-0.063h0.245c0.055,0,0.08,0.014,0.098,0.063l1.153,3.416h0.018
		v-3.416c0-0.037,0.025-0.063,0.063-0.063h0.171c0.038,0,0.062,0.025,0.062,0.063v4.047c0,0.037-0.023,0.063-0.062,0.063h-0.233
		c-0.055,0-0.08-0.014-0.097-0.063l-1.166-3.416h-0.02v3.416c0,0.037-0.023,0.063-0.061,0.063h-0.171
		c-0.037,0-0.063-0.025-0.063-0.063V28.283z"/>
	<path fill="#1D1D1B" d="M98.892,30.307c0-1.221,0.019-1.381,0.08-1.564c0.122-0.373,0.41-0.57,0.84-0.57
		c0.54,0,0.828,0.32,0.895,0.822c0.007,0.043-0.006,0.068-0.042,0.08l-0.178,0.037c-0.043,0.012-0.068-0.006-0.074-0.043
		c-0.055-0.369-0.232-0.596-0.601-0.596c-0.265,0-0.448,0.115-0.533,0.367c-0.044,0.143-0.063,0.271-0.063,1.467
		s0.019,1.324,0.063,1.467c0.085,0.244,0.275,0.367,0.54,0.367c0.263,0,0.453-0.123,0.539-0.367
		c0.043-0.143,0.061-0.271,0.061-1.223c0-0.023-0.012-0.035-0.037-0.035h-0.496c-0.036,0-0.061-0.025-0.061-0.063v-0.172
		c0-0.035,0.024-0.061,0.061-0.061h0.785c0.036,0,0.062,0.025,0.062,0.061v0.166c0,1.08-0.019,1.24-0.08,1.424
		c-0.122,0.373-0.41,0.57-0.84,0.57s-0.718-0.197-0.84-0.57C98.91,31.688,98.892,31.527,98.892,30.307"/>
	<path fill="#1D1D1B" d="M103.193,32.441c-0.577,0-0.865-0.344-0.896-1.049c0-0.037,0.007-0.063,0.043-0.068l0.185-0.035
		c0.049-0.014,0.068,0.012,0.068,0.047c0.042,0.609,0.238,0.811,0.606,0.811c0.374,0,0.564-0.178,0.564-0.865
		c0-0.527-0.129-0.73-0.46-0.857l-0.251-0.098c-0.553-0.215-0.706-0.486-0.706-1.117c0-0.699,0.281-1.037,0.847-1.037
		c0.552,0,0.828,0.313,0.846,0.963c0,0.037-0.006,0.055-0.043,0.068l-0.178,0.031c-0.042,0.012-0.067-0.014-0.067-0.051
		c-0.019-0.49-0.184-0.717-0.552-0.717c-0.375,0-0.54,0.215-0.54,0.73c0,0.482,0.123,0.668,0.466,0.803l0.252,0.098
		c0.522,0.209,0.699,0.473,0.699,1.148C104.076,32.105,103.813,32.441,103.193,32.441"/>
	<path fill="#1D1D1B" d="M105.734,28.283c0-0.037,0.025-0.063,0.062-0.063h1.417c0.037,0,0.062,0.025,0.062,0.063v0.178
		c0,0.037-0.024,0.061-0.062,0.061h-1.122c-0.025,0-0.037,0.012-0.037,0.037v1.559c0,0.025,0.012,0.037,0.037,0.037h0.98
		c0.037,0,0.062,0.023,0.062,0.061v0.178c0,0.037-0.024,0.061-0.062,0.061h-0.98c-0.025,0-0.037,0.012-0.037,0.037v1.84
		c0,0.037-0.025,0.063-0.062,0.063h-0.196c-0.036,0-0.062-0.025-0.062-0.063V28.283z"/>
	<path fill="#1D1D1B" d="M110.349,32.393c-0.037,0-0.055-0.012-0.066-0.043l-0.54-1.84c-0.08,0.012-0.166,0.018-0.259,0.018h-0.288
		c-0.024,0-0.036,0.014-0.036,0.037v1.768c0,0.035-0.025,0.061-0.062,0.061h-0.196c-0.036,0-0.062-0.025-0.062-0.061v-4.049
		c0-0.039,0.025-0.063,0.062-0.063h0.595c0.729,0,1.062,0.307,1.062,1.154c0,0.582-0.184,0.906-0.516,1.055l0.564,1.902
		c0.013,0.035,0,0.061-0.03,0.061H110.349z M110.238,29.375c0-0.645-0.209-0.854-0.718-0.854h-0.325
		c-0.024,0-0.036,0.012-0.036,0.037v1.637c0,0.025,0.012,0.037,0.036,0.037h0.325C110.018,30.232,110.238,30.043,110.238,29.375"/>
	<path fill="#1D1D1B" d="M112.289,28.283c0-0.037,0.025-0.063,0.062-0.063h1.417c0.036,0,0.062,0.025,0.062,0.063v0.178
		c0,0.037-0.025,0.061-0.062,0.061h-1.123c-0.024,0-0.036,0.012-0.036,0.037v1.533c0,0.025,0.012,0.037,0.036,0.037h0.981
		c0.037,0,0.062,0.025,0.062,0.063v0.176c0,0.037-0.024,0.063-0.062,0.063h-0.981c-0.024,0-0.036,0.012-0.036,0.035v1.59
		c0,0.025,0.012,0.037,0.036,0.037h1.123c0.036,0,0.062,0.023,0.062,0.063v0.176c0,0.037-0.025,0.063-0.062,0.063h-1.417
		c-0.036,0-0.062-0.025-0.062-0.063V28.283z"/>
	<path fill="#1D1D1B" d="M115.413,28.283c0-0.037,0.024-0.063,0.062-0.063h0.196c0.036,0,0.062,0.025,0.062,0.063v4.047
		c0,0.037-0.025,0.063-0.062,0.063h-0.196c-0.037,0-0.062-0.025-0.062-0.063V28.283z"/>
	<path fill="#1D1D1B" d="M117.536,28.283c0-0.037,0.025-0.063,0.063-0.063h0.196c0.035,0,0.061,0.025,0.061,0.063v1.779
		c0,0.023,0.012,0.035,0.037,0.035h1.098c0.025,0,0.036-0.012,0.036-0.035v-1.779c0-0.037,0.025-0.063,0.063-0.063h0.195
		c0.037,0,0.062,0.025,0.062,0.063v4.047c0,0.037-0.024,0.063-0.062,0.063h-0.195c-0.037,0-0.063-0.025-0.063-0.063v-1.895
		c0-0.025-0.011-0.037-0.036-0.037h-1.098c-0.025,0-0.037,0.012-0.037,0.037v1.895c0,0.037-0.025,0.063-0.061,0.063h-0.196
		c-0.037,0-0.063-0.025-0.063-0.063V28.283z"/>
	<path fill="#1D1D1B" d="M121.151,28.283c0-0.037,0.024-0.063,0.062-0.063h1.417c0.036,0,0.062,0.025,0.062,0.063v0.178
		c0,0.037-0.025,0.061-0.062,0.061h-1.123c-0.024,0-0.036,0.012-0.036,0.037v1.533c0,0.025,0.012,0.037,0.036,0.037h0.981
		c0.037,0,0.062,0.025,0.062,0.063v0.176c0,0.037-0.024,0.063-0.062,0.063h-0.981c-0.024,0-0.036,0.012-0.036,0.035v1.59
		c0,0.025,0.012,0.037,0.036,0.037h1.123c0.036,0,0.062,0.023,0.062,0.063v0.176c0,0.037-0.025,0.063-0.062,0.063h-1.417
		c-0.037,0-0.062-0.025-0.062-0.063V28.283z"/>
	<path fill="#1D1D1B" d="M124.275,28.283c0-0.037,0.025-0.063,0.062-0.063h0.196c0.036,0,0.062,0.025,0.062,0.063v4.047
		c0,0.037-0.025,0.063-0.062,0.063h-0.196c-0.036,0-0.062-0.025-0.062-0.063V28.283z"/>
	<path fill="#1D1D1B" d="M126.987,32.393c-0.036,0-0.062-0.025-0.062-0.063v-3.771c0-0.025-0.012-0.037-0.036-0.037h-0.736
		c-0.037,0-0.062-0.023-0.062-0.061v-0.178c0-0.037,0.024-0.063,0.062-0.063h1.864c0.037,0,0.062,0.025,0.062,0.063v0.178
		c0,0.037-0.024,0.061-0.062,0.061h-0.736c-0.023,0-0.035,0.012-0.035,0.037v3.771c0,0.037-0.025,0.063-0.063,0.063H126.987z"/>
	<path fill="#1D1D1B" d="M45.639,10.654c0,1.436-0.967,2.11-1.904,2.257c0.938,0.146,1.904,0.821,1.904,2.286v4.925
		c0,0.879-0.058,1.729-0.586,2.286c-0.557,0.528-1.553,0.821-3.019,0.821h-3.605V3.648h3.605c1.466,0,2.462,0.293,3.019,0.821
		c0.528,0.557,0.586,1.407,0.586,2.286V10.654z M43.529,6.638c0-0.41-0.147-0.791-0.44-1.085c-0.264-0.293-0.645-0.439-1.055-0.439
		H40.51v7.035h1.524c0.41,0,0.791-0.176,1.055-0.44c0.293-0.293,0.44-0.674,0.44-1.085V6.638z M43.529,15.197
		c0-0.381-0.147-0.762-0.44-1.055c-0.264-0.293-0.645-0.44-1.055-0.44H40.51v7.973h1.524c0.41,0,0.791-0.176,1.055-0.439
		c0.293-0.294,0.44-0.675,0.44-1.085V15.197z"/>
	<path fill="#1D1D1B" d="M54.167,20.62c0,0.792-0.028,1.525-0.526,2.023c-0.47,0.498-1.378,0.733-2.668,0.733
		c-1.318,0-2.198-0.235-2.696-0.733c-0.469-0.498-0.528-1.231-0.499-2.023c0,0,0-8.969-0.029-8.998c0-0.792,0.06-1.525,0.528-2.023
		c0.498-0.469,1.378-0.733,2.696-0.733c1.29,0,2.198,0.264,2.668,0.733c0.498,0.498,0.526,1.231,0.526,2.023V20.62z M52.321,11.298
		c0-0.733-0.616-1.055-1.349-1.055c-0.763,0-1.349,0.322-1.349,1.055v9.644c0,0.733,0.586,1.055,1.349,1.055
		c0.732,0,1.349-0.322,1.349-1.055V11.298z"/>
	<path fill="#1D1D1B" d="M61.025,23.199v-0.704c-0.85,0.938-2.286,1.027-3.166,0.733c-0.938-0.293-1.377-0.791-1.377-2.52v-9.117
		c0-1.729,0.439-2.256,1.377-2.55c0.88-0.293,2.287-0.263,3.166,0.733V3.443h1.876v19.756H61.025z M59.678,10.331
		c-0.733,0-1.349,0.352-1.349,1.085v9.526c0,0.733,0.615,1.085,1.349,1.085c0.762,0,1.348-0.352,1.348-1.085v-9.526
		C61.025,10.683,60.439,10.331,59.678,10.331"/>
	<path fill="#1D1D1B" d="M71.401,36.148c-0.469,0.498-1.378,0.732-2.696,0.732H65.48v-1.377h3.225c0.762,0,1.348-0.293,1.348-1.057
		v-11.98c-0.908,1.025-2.228,1.055-3.194,0.762c-0.909-0.323-1.349-0.792-1.349-2.521V9.071h1.847v11.842
		c0,0.762,0.615,1.085,1.349,1.085c0.732,0,1.348-0.323,1.348-1.056V9.071h1.877v25.054C71.93,34.918,71.899,35.65,71.401,36.148"/>
	<polygon fill="#1D1D1B" points="85.47,23.229 85.47,6.315 82.069,23.229 80.311,23.229 76.91,6.315 76.91,23.229 74.83,23.229 
		74.83,3.678 78.435,3.678 81.19,17.572 83.945,3.678 87.551,3.678 87.551,23.229 	"/>
	<path fill="#1D1D1B" d="M94.906,23.199v-0.703c-0.879,0.967-2.286,1.026-3.166,0.733c-0.938-0.293-1.378-0.792-1.378-2.521v-3.342
		v-0.029c0-1.73,1.027-2.58,2.492-2.58h2.052v-3.429c0-0.762-0.586-1.055-1.318-1.055c-0.763,0-1.379,0.293-1.379,1.055v1.847
		h-1.847V11.65c0-0.791,0.03-1.524,0.528-2.022c0.469-0.499,1.378-0.733,2.697-0.733c1.289,0,2.197,0.234,2.667,0.733
		c0.499,0.498,0.527,1.231,0.527,2.022v11.549H94.906z M94.906,16.135h-1.348c-0.733,0-1.35,0.323-1.35,1.055v3.752
		c0,0.733,0.616,1.085,1.35,1.085c0.762,0,1.348-0.352,1.348-1.085V16.135z"/>
	<path fill="#1D1D1B" d="M103.845,23.199V11.328c0-0.733-0.615-1.085-1.348-1.085c-0.733,0-1.349,0.352-1.349,1.085v11.871h-1.876
		V9.07h1.876v0.704c0.88-0.997,2.287-1.026,3.194-0.733c0.909,0.294,1.349,0.792,1.349,2.521v11.637H103.845z"/>
	<path fill="#1D1D1B" d="M112.638,23.199v-0.704c-0.879,0.997-2.228,1.027-3.166,0.733c-0.938-0.293-1.378-0.791-1.378-2.52V9.07
		h1.847v11.872c0,0.733,0.616,1.085,1.35,1.085c0.762,0,1.348-0.352,1.348-1.085V9.07h1.876v14.129H112.638z"/>
	<path fill="#1D1D1B" d="M121.547,23.199v-0.703c-0.879,0.967-2.285,1.026-3.166,0.733c-0.938-0.293-1.377-0.792-1.377-2.521v-3.342
		v-0.029c0-1.73,1.025-2.58,2.491-2.58h2.052v-3.429c0-0.762-0.586-1.055-1.318-1.055c-0.762,0-1.378,0.293-1.378,1.055v1.847
		h-1.847V11.65c0-0.791,0.029-1.524,0.527-2.022c0.469-0.499,1.378-0.733,2.697-0.733c1.29,0,2.198,0.234,2.667,0.733
		c0.499,0.498,0.528,1.231,0.528,2.022v11.549H121.547z M121.547,16.135h-1.348c-0.732,0-1.349,0.323-1.349,1.055v3.752
		c0,0.733,0.616,1.085,1.349,1.085c0.762,0,1.348-0.352,1.348-1.085V16.135z"/>
	<rect x="125.914" y="3.472" fill="#1D1D1B" width="1.876" height="19.727"/>
</g>
</svg>
